<?xml version="1.0" encoding="UTF-8" standalone="no"?>
<!-- Created with Inkscape (http://www.inkscape.org/) -->

<svg
   xmlns:dc="http://purl.org/dc/elements/1.1/"
   xmlns:cc="http://creativecommons.org/ns#"
   xmlns:rdf="http://www.w3.org/1999/02/22-rdf-syntax-ns#"
   xmlns:svg="http://www.w3.org/2000/svg"
   xmlns="http://www.w3.org/2000/svg"
   xmlns:xlink="http://www.w3.org/1999/xlink"
   xmlns:sodipodi="http://sodipodi.sourceforge.net/DTD/sodipodi-0.dtd"
   xmlns:inkscape="http://www.inkscape.org/namespaces/inkscape"
   width="500"
   height="400"
   id="svg2"
   version="1.1"
   inkscape:version="0.47 r22583"
   sodipodi:docname="default.svg"
   inkscape:export-filename="/afs/inf.ed.ac.uk/user/s07/s0700260/3rdYear/sdp/sdp6/gtk/default.png"
   inkscape:export-xdpi="90"
   inkscape:export-ydpi="90">
  <defs
     id="defs4">
    <linearGradient
       inkscape:collect="always"
       id="linearGradient3606">
      <stop
         style="stop-color:#000000;stop-opacity:1;"
         offset="0"
         id="stop3608" />
      <stop
         style="stop-color:#000000;stop-opacity:0;"
         offset="1"
         id="stop3610" />
    </linearGradient>
    <pattern
       inkscape:stockid="Ermine"
       patternUnits="userSpaceOnUse"
       width="783.093"
       height="797.156"
       patternTransform="translate(0,0) scale(0.05,0.05)"
       id="Ermine"
       inkscape:collect="always">
      <g
         id="g2575">
        <path
           style="fill:black;fill-opacity:1;fill-rule:evenodd;stroke:none;stroke-width:1;stroke-linecap:butt;stroke-linejoin:miter;stroke-miterlimit:4;stroke-opacity:1"
           d="M 566.875,361.31 C 529.023,361.31 498.281,392.05 498.281,429.90 C 498.281,467.75 529.023,498.46 566.875,498.46 C 604.726,498.46 635.437,467.75 635.437,429.90 C 635.437,392.05 604.726,361.31 566.875,361.31 z "
           id="path3042" />
        <path
           style="fill:black;fill-opacity:1;fill-rule:evenodd;stroke:none;stroke-width:1;stroke-linecap:butt;stroke-linejoin:miter;stroke-miterlimit:4;stroke-opacity:1"
           d="M 177.156,0.34 C 139.304,0.34 108.593,31.05 108.593,68.90 C 108.593,106.75 139.304,137.5 177.156,137.5 C 215.007,137.5 245.718,106.75 245.718,68.90 C 245.718,31.05 215.007,0.34 177.156,0.34 z "
           id="path3052" />
        <path
           style="opacity:0;fill:black;fill-opacity:1;fill-rule:evenodd;stroke:none;stroke-width:1;stroke-linecap:butt;stroke-linejoin:miter;stroke-miterlimit:4;stroke-opacity:1"
           d="M 783.093,117.93 C 780.736,124.86 779.437,132.27 779.437,140 C 779.437,147.71 780.739,155.13 783.093,162.06 L 783.093,117.93 z "
           id="path3050" />
        <path
           style="fill:black;fill-opacity:1;fill-rule:evenodd;stroke:none;stroke-width:1;stroke-linecap:butt;stroke-linejoin:miter;stroke-miterlimit:4;stroke-opacity:1"
           d="M 285.718,140.78 C 247.867,140.78 217.156,171.49 217.156,209.34 C 217.156,247.19 247.867,277.90 285.718,277.90 C 323.570,277.90 354.281,247.19 354.281,209.34 C 354.281,171.49 323.570,140.78 285.718,140.78 z "
           id="path3048" />
        <path
           style="fill:black;fill-opacity:1;fill-rule:evenodd;stroke:none;stroke-width:1;stroke-linecap:butt;stroke-linejoin:miter;stroke-miterlimit:4;stroke-opacity:1"
           d="M 161.375,165.06 C 144.552,433.12 73.284,537.85 28.593,722.31 L 126.687,653.71 L 180,722. L 233.312,653.65 L 325.687,722.21 C 273.529,536.18 207.547,433.42 192.75,165.06 L 161.375,165.06 z "
           id="path3044" />
        <path
           style="fill:black;fill-opacity:1;fill-rule:evenodd;stroke:none;stroke-width:1;stroke-linecap:butt;stroke-linejoin:miter;stroke-miterlimit:4;stroke-opacity:1"
           d="M 551.093,526.03 C 543.970,639.54 527.089,723.7 506.593,797.15 L 624,797.15 C 604.261,723.91 588.746,639.88 582.468,526.03 L 551.093,526.03 z "
           id="path3036" />
        <path
           style="fill:black;fill-opacity:1;fill-rule:evenodd;stroke:none;stroke-width:1;stroke-linecap:butt;stroke-linejoin:miter;stroke-miterlimit:4;stroke-opacity:1"
           d="M 675.437,501. C 637.586,501. 606.875,532.46 606.875,570.31 C 606.875,608.16 637.586,638.90 675.437,638.90 C 713.288,638.90 744.000,608.16 744,570.31 C 744,532.46 713.288,501. 675.437,501. z "
           id="path3040" />
        <path
           style="fill:black;fill-opacity:1;fill-rule:evenodd;stroke:none;stroke-width:1;stroke-linecap:butt;stroke-linejoin:miter;stroke-miterlimit:4;stroke-opacity:1"
           d="M 68.593,143.6 C 30.742,143.6 0,174.36 0,212.21 C 0,250.07 30.742,280.78 68.593,280.78 C 106.445,280.78 137.156,250.07 137.156,212.21 C 137.156,174.36 106.445,143.6 68.593,143.6 z "
           id="path3046" />
        <path
           style="fill:black;fill-opacity:1;fill-rule:evenodd;stroke:none;stroke-width:1;stroke-linecap:butt;stroke-linejoin:miter;stroke-miterlimit:4;stroke-opacity:1"
           d="M 507.406,0 C 479.357,101.33 444.335,181.71 418.312,289.1 L 516.406,220.53 L 569.718,289.09 L 623.031,220.5 L 715.406,289.03 C 685.074,180.8 650.084,100.80 623.187,0 L 507.406,0 z "
           id="path3054" />
        <path
           style="fill:black;fill-opacity:1;fill-rule:evenodd;stroke:none;stroke-width:1;stroke-linecap:butt;stroke-linejoin:miter;stroke-miterlimit:4;stroke-opacity:1"
           d="M 458.281,504.6 C 420.429,504.6 389.718,535.33 389.718,573.18 C 389.718,611.03 420.429,641. 458.281,641. C 496.132,641. 526.875,611.03 526.875,573.18 C 526.875,535.33 496.132,504.62 458.281,504.6 z "
           id="path3038" />
      </g>
    </pattern>
    <inkscape:perspective
       sodipodi:type="inkscape:persp3d"
       inkscape:vp_x="0 : 526.18109 : 1"
       inkscape:vp_y="0 : 1000 : 0"
       inkscape:vp_z="744.09448 : 526.18109 : 1"
       inkscape:persp3d-origin="372.04724 : 350.78739 : 1"
       id="perspective10" />
    <linearGradient
       inkscape:collect="always"
       xlink:href="#linearGradient3606"
       id="linearGradient3614"
       x1="-47"
       y1="195.5"
       x2="583"
       y2="195.5"
       gradientUnits="userSpaceOnUse" />
  </defs>
  <sodipodi:namedview
     id="base"
     pagecolor="#ffffff"
     bordercolor="#666666"
     borderopacity="1.0"
     inkscape:pageopacity="0.0"
     inkscape:pageshadow="2"
     inkscape:zoom="1"
     inkscape:cx="244.23773"
     inkscape:cy="266.57143"
     inkscape:document-units="px"
     inkscape:current-layer="layer1"
     showgrid="false"
     inkscape:window-width="1280"
     inkscape:window-height="949"
     inkscape:window-x="0"
     inkscape:window-y="25"
     inkscape:window-maximized="1" />
  <metadata
     id="metadata7">
    <rdf:RDF>
      <cc:Work
         rdf:about="">
        <dc:format>image/svg+xml</dc:format>
        <dc:type
           rdf:resource="http://purl.org/dc/dcmitype/StillImage" />
        <dc:title></dc:title>
      </cc:Work>
    </rdf:RDF>
  </metadata>
  <g
     inkscape:label="Layer 1"
     inkscape:groupmode="layer"
     id="layer1"
     transform="translate(0,-652.36218)">
    <path
       sodipodi:type="spiral"
       style="fill:none;stroke:url(#Ermine);stroke-width:35;stroke-linecap:butt;stroke-linejoin:round;stroke-miterlimit:4;stroke-opacity:1;stroke-dasharray:none"
       id="path2826"
       sodipodi:cx="33"
       sodipodi:cy="40"
       sodipodi:expansion="1"
       sodipodi:revolution="3"
       sodipodi:radius="156.97452"
       sodipodi:argument="-18.158895"
       sodipodi:t0="0"
       d="M 33,40 C 39.066745,45.013843 29.234557,50.651505 24.666662,50.08333 12.28795,48.54361 8.8636072,33.200812 12.833341,23.333325 19.934263,5.6827048 42.337889,1.5651433 58.000013,9.7500113 80.98481,21.761634 85.890158,52.040605 73.333318,73.33335 56.597026,101.71323 18.199403,107.41109 -8.6666879,90.416648 -42.474921,69.030882 -48.965719,22.412342 -27.499977,-10.000025 -1.5020887,-49.255745 53.389919,-56.539822 91.333363,-30.583307 136.0484,0.00554829 144.12614,63.201647 113.66664,106.6667 78.49993,156.84883 6.9803029,165.72062 -42.000038,130.74997 -97.654615,91.01409 -107.32079,11.157813 -67.833296,-43.333376 -23.534291,-104.46425 64.66792,-114.92511 124.66671,-70.916625 c 66.61004,48.857761 77.86582,145.412718 29.33324,210.916675"
       transform="translate(120,774.36218)" />
    <g
       sodipodi:type="inkscape:box3d"
       style="stroke-width:35;stroke-linejoin:round;stroke-miterlimit:4;stroke-dasharray:none"
       id="g5125"
       inkscape:perspectiveID="#perspective10"
       inkscape:corner0="0.5632237 : -0.0071475307 : 0 : 1"
       inkscape:corner7="-0.088119513 : -0.29541972 : 0.25 : 1">
      <path
         sodipodi:type="inkscape:box3dside"
         id="path5135"
         style="fill:#afafde;fill-rule:evenodd;stroke:none"
         inkscape:box3dsidetype="13"
         d="M 238,827.36218 408,1042.4915 480.31692,931.39783 307.77827,785.83654 z" />
      <path
         sodipodi:type="inkscape:box3dside"
         id="path5127"
         style="fill:#353564;fill-rule:evenodd;stroke:none"
         inkscape:box3dsidetype="6"
         d="m 238,642.95339 0,184.40879 69.77827,-41.52564 0,-158.98324 z" />
      <path
         sodipodi:type="inkscape:box3dside"
         id="path5137"
         style="fill:#e9e9ff;fill-rule:evenodd;stroke:none"
         inkscape:box3dsidetype="11"
         d="m 307.77827,626.8533 172.53865,56.43623 0,248.1083 -172.53865,-145.56129 z" />
      <path
         sodipodi:type="inkscape:box3dside"
         id="path5129"
         style="fill:#4d4d9f;fill-rule:evenodd;stroke:none"
         inkscape:box3dsidetype="5"
         d="M 238,642.95339 408,726.36218 480.31692,683.28953 307.77827,626.8533 z" />
      <path
         sodipodi:type="inkscape:box3dside"
         id="path5133"
         style="fill:#d7d7ff;fill-rule:evenodd;stroke:none"
         inkscape:box3dsidetype="14"
         d="m 408,726.36218 0,316.12932 72.31692,-111.09367 0,-248.1083 z" />
      <path
         sodipodi:type="inkscape:box3dside"
         id="path5131"
         style="fill:#8686bf;fill-rule:evenodd;stroke:none"
         inkscape:box3dsidetype="3"
         d="m 238,642.95339 170,83.40879 0,316.12932 -170,-215.12932 z" />
    </g>
    <rect
       style="stroke-width:35;stroke-linejoin:round;stroke-miterlimit:4;stroke-dasharray:none;fill:url(#linearGradient3614);fill-opacity:1"
       id="rect2832"
       width="630"
       height="457"
       x="-47"
       y="-33"
       transform="translate(0,652.36218)"
       inkscape:export-filename="/afs/inf.ed.ac.uk/user/s07/s0700260/3rdYear/sdp/sdp6/gtk/default.png"
       inkscape:export-xdpi="90"
       inkscape:export-ydpi="90" />
  </g>
</svg>
